<?xml version="1.0" standalone="no"?>
<!DOCTYPE svg PUBLIC "-//W3C//DTD SVG 20010904//EN"
 "http://www.w3.org/TR/2001/REC-SVG-20010904/DTD/svg10.dtd">
<svg version="1.0" xmlns="http://www.w3.org/2000/svg"
 width="396.000000pt" height="405.000000pt" viewBox="0 0 396.000000 405.000000"
 preserveAspectRatio="xMidYMid meet">

<g transform="translate(0.000000,405.000000) scale(0.100000,-0.100000)"
fill="#000000" stroke="none">
<path d="M1910 3922 c-46 -23 -73 -72 -75 -139 -1 -29 -4 -55 -6 -57 -2 -2
-50 -18 -106 -35 -56 -18 -159 -61 -229 -96 -70 -36 -129 -65 -133 -65 -3 0
-33 25 -66 55 -64 58 -101 72 -160 61 -29 -6 -62 -36 -195 -178 -176 -189
-193 -216 -171 -288 8 -27 28 -53 61 -82 28 -24 50 -48 50 -53 0 -6 -21 -51
-48 -100 -55 -105 -98 -210 -127 -315 l-21 -75 -89 -2 c-101 -3 -131 -12 -160
-51 -18 -25 -20 -46 -23 -272 -3 -219 -2 -249 14 -278 26 -49 65 -65 171 -70
l91 -4 7 -37 c15 -82 66 -217 122 -325 l35 -68 -39 -42 c-79 -82 -93 -101 -99
-133 -14 -74 -2 -93 144 -230 229 -217 227 -215 307 -203 42 6 55 14 90 54 22
25 43 46 47 46 4 0 37 -18 73 -40 134 -82 294 -153 408 -181 43 -10 47 -14 49
-43 0 -17 0 -39 0 -50 -4 -40 19 -95 53 -125 l36 -31 139 0 140 0 0 369 0 369
-57 5 c-153 14 -320 57 -362 93 -4 3 24 46 147 223 l86 123 46 -6 c25 -4 66
-10 93 -13 l47 -6 -2 584 -3 584 -55 -3 c-50 -3 -107 -14 -145 -28 -9 -4 -31
21 -65 73 -28 43 -55 85 -60 93 -78 116 -109 167 -110 176 0 29 228 99 358
109 l82 7 0 359 0 359 -127 0 c-102 0 -135 -4 -163 -18z m-345 -994 c10 -18
59 -94 107 -168 86 -131 99 -162 78 -175 -20 -12 -63 -89 -96 -170 l-33 -80
-203 0 -203 0 -3 27 c-8 70 73 285 153 407 54 82 151 191 169 191 6 0 20 -15
31 -32z m86 -910 c23 -64 104 -198 119 -198 5 0 11 -9 15 -19 4 -14 -26 -65
-110 -185 -64 -91 -120 -166 -125 -166 -15 0 -142 143 -182 205 -82 125 -172
364 -155 409 6 14 34 16 210 16 l205 0 23 -62z"/>
<path d="M2288 3913 c-17 -4 -18 -95 -18 -1724 l0 -1719 290 0 290 0 0 170 0
170 153 0 c199 0 252 16 344 106 36 36 72 82 84 109 20 44 21 58 14 194 -6
136 -6 148 13 171 35 46 52 88 52 134 0 38 6 52 35 85 30 33 35 45 35 88 0 82
14 108 77 139 30 16 66 42 80 58 22 26 25 37 20 79 -7 55 -81 206 -165 337
-30 46 -60 108 -68 137 -7 29 -18 142 -24 252 -9 167 -15 220 -41 321 -91 362
-264 625 -482 729 -224 108 -580 193 -689 164z"/>
</g>
</svg>
